<svg width="24" height="24" viewBox="0 0 24 24" fill="none" xmlns="http://www.w3.org/2000/svg">
<g id="arrow-left-outline">
<path id="Vector" d="M7.02195 10.2779L6.25204 11.1161H7.39019H19.7144C19.9083 11.1161 20.1039 11.1996 20.2552 11.3643C20.4078 11.5304 20.5 11.7641 20.5 12.0158C20.5 12.2675 20.4078 12.5012 20.2552 12.6673C20.1039 12.832 19.9083 12.9155 19.7144 12.9155H7.39019H6.25271L7.02181 13.7536L9.96661 16.9625C10.1137 17.1298 10.201 17.3611 10.199 17.6085C10.197 17.8572 10.1051 18.0876 9.95427 18.2518C9.80471 18.4146 9.61173 18.4982 9.41986 18.5C9.22919 18.5018 9.03653 18.4229 8.88526 18.2653L3.74595 12.67L3.74552 12.6695C3.67011 12.5876 3.60826 12.4881 3.56539 12.3756L3.09817 12.5537L3.56539 12.3756C3.52251 12.2631 3.5 12.1412 3.5 12.0172C3.5 11.8932 3.52251 11.7713 3.56539 11.6588C3.60826 11.5463 3.67011 11.4468 3.74552 11.3649L3.74595 11.3644L8.88851 5.76555L8.88857 5.7656L8.89431 5.75913C8.96914 5.67477 9.05631 5.61009 9.14941 5.56655C9.24236 5.52308 9.34053 5.50096 9.43858 5.50003C9.53663 5.4991 9.635 5.51937 9.7284 5.56097C9.82195 5.60264 9.9099 5.66549 9.98587 5.7482C10.0619 5.83099 10.1241 5.93175 10.1669 6.04558C10.2097 6.15945 10.2316 6.28274 10.2306 6.40789C10.2296 6.53305 10.2057 6.6558 10.1612 6.76867C10.1167 6.8815 10.053 6.98083 9.97585 7.06196L9.9758 7.06191L9.96993 7.06829L7.02195 10.2779Z" fill="#374151" stroke="#374151"/>
</g>
</svg>
