<svg width="24" height="24" viewBox="0 0 24 24" fill="none" xmlns="http://www.w3.org/2000/svg">
<g id="chevron-down">
<path id="Vector" d="M11.3719 15.2477L11.3719 15.2478C11.5389 15.4065 11.7705 15.4999 12.0171 15.5L11.3719 15.2477ZM11.3719 15.2477L5.77186 9.92528L5.77191 9.92522M11.3719 15.2477L5.77191 9.92522M5.77191 9.92522L5.76552 9.91936M5.77191 9.92522L5.76552 9.91936M5.76552 9.91936C5.68058 9.84138 5.61432 9.74951 5.56929 9.64986C5.52428 9.55029 5.50101 9.44421 5.50003 9.3376C5.49906 9.23099 5.52039 9.12462 5.56351 9.02445C5.60666 8.9242 5.67113 8.83139 5.75451 8.75215C5.83794 8.67285 5.93854 8.60885 6.05108 8.56509C6.16364 8.52132 6.28507 8.49902 6.40804 8.50003C6.53101 8.50105 6.65194 8.52535 6.76358 8.57093C6.87518 8.6165 6.97446 8.68207 7.0563 8.7626L7.05625 8.76266M5.76552 9.91936L7.05625 8.76266M7.05625 8.76266L7.06255 8.76864M7.05625 8.76266L7.06255 8.76864M7.06255 8.76864L11.6727 13.1503L12.0172 13.4777M7.06255 8.76864L12.0172 13.4777M12.0172 13.4777L12.3617 13.1503M12.0172 13.4777L12.3617 13.1503M12.3617 13.1503L16.9684 8.77197C17.1364 8.61909 17.3656 8.53073 17.608 8.53274C17.8519 8.53475 18.0803 8.62789 18.2455 8.78485C18.4098 8.94103 18.4981 9.14683 18.5 9.35632C18.5019 9.56458 18.4184 9.77038 18.259 9.92861L12.6625 15.2477L12.6625 15.2478M12.3617 13.1503L12.6625 15.2478M12.6625 15.2478C12.4955 15.4065 12.2639 15.4999 12.0173 15.5L12.6625 15.2478Z" fill="#374151" stroke="#374151"/>
</g>
</svg>
