<svg xmlns="http://www.w3.org/2000/svg" width="42" height="42" fill="none"><path fill="#fff" stroke="#fff" d="M21.01 4c4.03 0 7.931 1.472 11.004 4.153 3.073 2.682 5.118 6.4 5.766 10.49a17.828 17.828 0 0 1-2.234 11.828c-2.083 3.534-5.318 6.192-9.127 7.505-.304.054-.42-.026-.464-.066a.426.426 0 0 1-.11-.31c0-.193.003-.533.006-.99l.005-.79c.005-.853.01-1.931.01-3.126a4.887 4.887 0 0 0-.756-2.96c1.711-.272 3.46-.814 4.847-2.005 1.648-1.414 2.707-3.67 2.708-7.22a7.536 7.536 0 0 0-1.738-4.932 7.1 7.1 0 0 0-.28-4.83l-.089-.207-.213-.07-.157.474.156-.475h-.001l-.003-.001-.004-.002-.011-.003a2.062 2.062 0 0 0-.393-.057 3.872 3.872 0 0 0-.997.099c-.828.18-2.024.642-3.634 1.735a16.702 16.702 0 0 0-8.574 0c-1.613-1.093-2.814-1.556-3.645-1.735a3.897 3.897 0 0 0-1-.1 2.07 2.07 0 0 0-.364.05.754.754 0 0 0-.03.008l-.01.003-.005.002h-.003l.154.476-.155-.475-.215.07-.09.208a7.099 7.099 0 0 0-.27 4.83 7.545 7.545 0 0 0-1.74 4.932c0 3.543 1.057 5.802 2.7 7.22 1.383 1.195 3.124 1.744 4.83 2.022a4.375 4.375 0 0 0-.638 1.705 3.152 3.152 0 0 1-2.242.184 3.191 3.191 0 0 1-1.124-.594 3.298 3.298 0 0 1-.818-.997l-.005-.01a4.235 4.235 0 0 0-1.284-1.408 4.121 4.121 0 0 0-1.762-.689l-.031-.004h-.031l-.008.5.007-.5h-.003l-.007-.001h-.02a2.844 2.844 0 0 0-.274.016c-.147.016-.4.055-.61.177a.78.78 0 0 0-.334.363.741.741 0 0 0 .005.58c.123.3.425.578.827.86l.006.004.007.005a4.244 4.244 0 0 1 1.736 2.35l.003.01.476-.152-.476.153v.001l.001.002.002.004.004.013.014.038a3.48 3.48 0 0 0 .264.532 4.11 4.11 0 0 0 1.007 1.119c.919.706 2.369 1.222 4.579.86l.013 1.69c.005.485.008.857.008 1.044 0 .14-.047.25-.11.308-.043.04-.16.12-.461.07-3.815-1.309-7.056-3.965-9.143-7.5A17.828 17.828 0 0 1 4.22 18.647c.647-4.095 2.695-7.816 5.773-10.5C13.07 5.466 16.976 3.997 21.01 4Z"/></svg>