<svg width="16" height="17" viewBox="0 0 16 17" fill="none" xmlns="http://www.w3.org/2000/svg">
<g id="link">
<path id="Vector" d="M4.74742 15.3333L4.74498 15.3333C4.18054 15.3343 3.62399 15.1511 3.14572 14.8C2.66674 14.4484 2.28666 13.943 2.06066 13.3427C1.83459 12.7422 1.77504 12.079 1.89114 11.439C2.00722 10.799 2.29241 10.2172 2.70416 9.76537L2.70458 9.7649L5.41708 6.78071C5.96782 6.176 6.70325 5.84668 7.45866 5.84668C8.21097 5.84668 8.94346 6.17331 9.49345 6.77328C9.53759 6.82763 9.56731 6.90651 9.566 6.99533C9.56465 7.08687 9.53071 7.16589 9.4836 7.21769C9.43782 7.26804 9.38644 7.2868 9.34379 7.28753C9.30238 7.28824 9.25299 7.27226 9.20774 7.2273C8.75102 6.73001 8.12371 6.44081 7.45866 6.44081C6.7904 6.44081 6.16024 6.73281 5.70298 7.23452L5.70248 7.23506L2.98965 10.2204C2.53421 10.7216 2.28553 11.392 2.28553 12.0821C2.28553 12.4247 2.34681 12.765 2.4668 13.0837C2.5868 13.4026 2.76376 13.6951 2.98965 13.9437L3.34675 13.6192L2.98965 13.9437C3.21563 14.1924 3.48652 14.3925 3.78827 14.5301C4.09019 14.6677 4.41572 14.7393 4.74583 14.7393C5.41463 14.7393 6.04512 14.4465 6.50201 13.9437L6.85303 13.5574C6.85309 13.5574 6.85316 13.5573 6.85323 13.5572C6.87667 13.5316 6.90185 13.5141 6.92596 13.5031C6.94997 13.4922 6.97376 13.4874 6.99644 13.4875C7.01912 13.4875 7.04292 13.4924 7.06696 13.5034C7.09115 13.5145 7.11641 13.5322 7.13986 13.5581L7.51049 13.2225L7.13987 13.5581C7.16341 13.5841 7.1843 13.6175 7.19925 13.6574L7.66749 13.4821L7.19925 13.6574C7.21421 13.6974 7.22234 13.7416 7.22227 13.7872C7.2222 13.8328 7.21392 13.8769 7.19885 13.9168C7.18378 13.9566 7.16282 13.9898 7.13923 14.0157L7.13864 14.0163L6.78721 14.4031C6.78715 14.4032 6.78709 14.4032 6.78703 14.4033C6.51453 14.7028 6.1936 14.9372 5.84406 15.0958C5.49461 15.2543 5.12209 15.3345 4.74742 15.3333ZM8.54704 11.1545L8.54598 11.1545C8.17106 11.1551 7.79839 11.0743 7.44888 10.9152C7.10066 10.7567 6.78093 10.5228 6.50927 10.2244C6.4632 10.1706 6.43138 10.0906 6.4321 9.99946C6.43283 9.90698 6.46689 9.82693 6.51446 9.77457C6.56066 9.72374 6.61255 9.70506 6.65554 9.70465C6.69844 9.70424 6.75008 9.72184 6.79654 9.77122L6.79653 9.77122L6.79854 9.77334C7.26116 10.2593 7.88632 10.5398 8.54684 10.5398C9.20735 10.5398 9.83251 10.2593 10.2951 9.77334L10.2952 9.77343L10.303 9.76486L13.0146 6.78084C13.0147 6.78078 13.0147 6.78072 13.0148 6.78066C13.2411 6.53228 13.4184 6.23974 13.5387 5.92089C13.659 5.60199 13.7204 5.26153 13.7204 4.91864C13.7204 4.57576 13.659 4.2353 13.5387 3.9164C13.4184 3.59747 13.241 3.30487 13.0146 3.05645L13.0147 3.05637L13.0074 3.04867C12.545 2.56247 11.9198 2.28183 11.2593 2.28183C10.5988 2.28183 9.97363 2.56247 9.51122 3.04867L9.51113 3.04858L9.50349 3.05699L8.96278 3.65202C8.91604 3.70341 8.8635 3.72194 8.82009 3.72193C8.77667 3.72191 8.72412 3.70334 8.67739 3.65188C8.62923 3.59884 8.595 3.5175 8.59503 3.42385C8.59506 3.3302 8.62934 3.2489 8.67752 3.19592L8.67764 3.19578L9.21834 2.60077C9.21838 2.60072 9.21842 2.60067 9.21846 2.60063C9.76865 1.9957 10.5038 1.66636 11.2589 1.66667C12.0141 1.66698 12.7491 1.99699 13.2989 2.60248C13.8502 3.20957 14.1669 4.04219 14.1666 4.91908C14.1663 5.79598 13.849 6.62831 13.2974 7.23493L13.2973 7.23501L10.5845 10.2196L10.584 10.22C10.3121 10.5199 9.99169 10.755 9.64256 10.9143C9.2936 11.0735 8.92148 11.1546 8.54704 11.1545Z" fill="#3E238B" stroke="#3E238B"/>
</g>
</svg>
