<svg width="33" height="32" viewBox="0 0 33 32" fill="none" xmlns="http://www.w3.org/2000/svg">
<g id="Logomark 4">
<circle id="Ellipse 2" cx="16.7" cy="16" r="16" fill="white" fill-opacity="0.33"/>
<path id="Quarter" fill-rule="evenodd" clip-rule="evenodd" d="M16.7 32L16.7 26C11.1771 26 6.69995 21.5228 6.69995 16H0.699951C0.699951 24.8366 7.8634 32 16.7 32Z" fill="white" fill-opacity="0.66"/>
<path id="Quarter_2" fill-rule="evenodd" clip-rule="evenodd" d="M0.699952 16C0.699953 7.16344 7.8634 -3.86258e-07 16.7 0L16.6999 6C11.1771 6 6.69995 10.4772 6.69995 16L0.699952 16Z" fill="white"/>
<path id="Quarter_3" fill-rule="evenodd" clip-rule="evenodd" d="M32.7 16C32.7 24.8366 25.5365 32 16.7 32L16.7 26C22.2228 26 26.7 21.5228 26.7 16L32.7 16Z" fill="white" fill-opacity="0.33"/>
<path id="Icon (Stroke)" fill-rule="evenodd" clip-rule="evenodd" d="M18.8164 10.8502C17.7921 10.3938 16.6478 10.2807 15.554 10.5279C14.4602 10.775 13.4756 11.369 12.7471 12.2215C12.0185 13.0739 11.585 14.139 11.5112 15.2579C11.4375 16.3768 11.7273 17.4896 12.3377 18.4303C12.948 19.371 13.846 20.0892 14.8979 20.4778C15.9497 20.8664 17.099 20.9045 18.1743 20.5866C19.2497 20.2687 20.1934 19.6116 20.8648 18.7135C21.5362 17.8154 21.8993 16.7243 21.9 15.603V15.0514C21.9 14.6096 22.2581 14.2514 22.7 14.2514C23.1418 14.2514 23.5 14.6096 23.5 15.0514V15.6039C23.4991 17.0703 23.0243 18.4971 22.1463 19.6715C21.2683 20.846 20.0342 21.7052 18.628 22.1209C17.2218 22.5367 15.7189 22.4868 14.3434 21.9786C12.9679 21.4704 11.7935 20.5312 10.9954 19.3011C10.1973 18.071 9.81822 16.6158 9.9147 15.1526C10.0112 13.6894 10.5781 12.2966 11.5308 11.1819C12.4835 10.0672 13.7711 9.29036 15.2014 8.96719C16.6317 8.64403 18.1281 8.79188 19.4676 9.3887C19.8711 9.56852 20.0525 10.0415 19.8727 10.445C19.6929 10.8486 19.2199 11.03 18.8164 10.8502ZM23.2654 10.234C23.5779 10.5463 23.5782 11.0528 23.2659 11.3654L17.2659 17.3714C17.1159 17.5216 16.9124 17.606 16.7002 17.606C16.4879 17.6061 16.2844 17.5218 16.1343 17.3717L14.3343 15.5717C14.0219 15.2593 14.0219 14.7527 14.3343 14.4403C14.6467 14.1279 15.1532 14.1279 15.4656 14.4403L16.6997 15.6743L22.134 10.2346C22.4463 9.92203 22.9528 9.92177 23.2654 10.234Z" fill="white"/>
</g>
</svg>
