<svg width="82" height="12" viewBox="0 0 82 12" fill="none" xmlns="http://www.w3.org/2000/svg">
<g id="NF Logo" clip-path="url(#clip0_2_14557)">
<path id="Vector" fill-rule="evenodd" clip-rule="evenodd" d="M12.1696 9.35328L9.01523 5.17969V0.862019H11.6222C11.7674 0.862019 11.9066 0.920346 12.0092 1.02417C12.1119 1.12799 12.1696 1.2688 12.1696 1.41563V9.35328ZM11.6547 11.1228H9.29267C9.03063 11.1224 8.77218 11.0612 8.53728 10.9437C8.30238 10.8262 8.09733 10.6557 7.93796 10.4453L1.18189 1.52939C1.13521 1.46802 1.10645 1.39466 1.09888 1.31761C1.0913 1.24056 1.10522 1.16291 1.13904 1.09345C1.17286 1.02399 1.22523 0.965493 1.29023 0.92459C1.35524 0.883687 1.43026 0.862012 1.50682 0.862019H3.85632C4.11819 0.861901 4.37657 0.922714 4.61149 1.03975C4.8464 1.15679 5.05154 1.32692 5.21104 1.53697L11.9796 10.4605C12.0239 10.5221 12.0507 10.5949 12.057 10.6708C12.0633 10.7467 12.049 10.8229 12.0155 10.8912C11.982 10.9595 11.9307 11.0171 11.8671 11.058C11.8034 11.0988 11.73 11.1212 11.6547 11.1228ZM4.13626 11.1228H1.53181C1.38684 11.1221 1.24799 11.0636 1.14548 10.9599C1.04297 10.8563 0.985087 10.7158 0.98443 10.5692V2.61133L4.13626 6.80261V11.1228ZM11.6047 1.34373e-06H8.63031C8.51739 0.000669234 8.40932 0.0465068 8.3297 0.127501C8.25009 0.208496 8.2054 0.318065 8.2054 0.432274V4.11292L5.8709 1.01117C5.63366 0.696457 5.32772 0.44145 4.97696 0.266049C4.6262 0.0906478 4.24011 -0.000403436 3.84882 1.34373e-06H1.54181C1.17456 1.34373e-06 0.822359 0.14755 0.562676 0.410188C0.302993 0.672825 0.157104 1.02904 0.157104 1.40046L0.157104 10.5995C0.157104 10.7834 0.192921 10.9656 0.262509 11.1355C0.332097 11.3054 0.434094 11.4598 0.562676 11.5898C0.691258 11.7199 0.843907 11.823 1.01191 11.8934C1.17991 11.9638 1.35997 12 1.54181 12H4.52118C4.63454 12 4.74325 11.9545 4.82341 11.8734C4.90356 11.7923 4.94859 11.6824 4.94859 11.5677V7.83653L7.2681 10.9711C7.50533 11.2902 7.81258 11.5492 8.16564 11.7278C8.5187 11.9063 8.90794 11.9995 9.30267 12H11.6047C11.7864 12 11.9664 11.9638 12.1342 11.8933C12.3021 11.8229 12.4546 11.7197 12.5829 11.5897C12.7113 11.4596 12.8131 11.3052 12.8824 11.1353C12.9517 10.9654 12.9872 10.7833 12.9869 10.5995V1.40046C12.9872 1.21667 12.9517 1.03462 12.8824 0.864722C12.8131 0.694824 12.7113 0.540419 12.5829 0.410341C12.4546 0.280262 12.3021 0.177065 12.1342 0.106654C11.9664 0.0362433 11.7864 1.04322e-06 11.6047 1.34373e-06Z" fill="white"/>
<path id="Vector_2" fill-rule="evenodd" clip-rule="evenodd" d="M28.8512 10.9711H26.9566L22.2451 5.5159V10.9711H19.8031V1.02885H21.6677L26.4092 6.62818V1.02885H28.8512V10.9711Z" fill="white"/>
<path id="Vector_3" fill-rule="evenodd" clip-rule="evenodd" d="M31.458 6.72933H34.3198C34.2874 6.38787 34.1241 6.07281 33.8648 5.85168C33.6055 5.63054 33.2709 5.52091 32.9326 5.54627C32.587 5.53003 32.2472 5.6409 31.9761 5.85838C31.7051 6.07585 31.521 6.38524 31.458 6.72933ZM36.4744 8.07418L36.4594 8.11968H31.4879C31.5771 8.46602 31.7834 8.76979 32.0712 8.97811C32.3589 9.18642 32.7097 9.2861 33.0626 9.25977C33.2689 9.2757 33.4757 9.23753 33.6631 9.14896C33.8505 9.0604 34.0121 8.92442 34.1324 8.75419H36.4444C36.112 10.2179 34.7673 11.138 33.0326 11.138C30.7356 11.138 29.2034 9.5884 29.2034 7.42451C29.2034 5.26062 30.7031 3.72617 32.9326 3.72617C34.9697 3.72617 36.5169 5.14433 36.5169 7.27789C36.5239 7.54657 36.5097 7.81538 36.4744 8.08177" fill="white"/>
<path id="Vector_4" fill-rule="evenodd" clip-rule="evenodd" d="M42.1707 8.51403V6.3198C41.9949 6.10179 41.7717 5.92771 41.5185 5.81109C41.2654 5.69447 40.9891 5.63845 40.711 5.64737C40.4869 5.65052 40.2656 5.69922 40.0604 5.79057C39.8553 5.88192 39.6704 6.01407 39.5167 6.17915C39.363 6.34423 39.2438 6.53888 39.166 6.75151C39.0882 6.96415 39.0535 7.19043 39.0639 7.41691C39.0538 7.64258 39.0888 7.86798 39.1669 8.07962C39.245 8.29127 39.3645 8.48479 39.5183 8.6486C39.6721 8.81241 39.857 8.94314 40.062 9.03295C40.2669 9.12276 40.4877 9.16981 40.711 9.17128C40.9879 9.18281 41.2637 9.12949 41.5169 9.01548C41.7701 8.90147 41.9939 8.72986 42.1707 8.51403ZM44.5127 10.9686H42.1707V10.5743C41.5963 10.9421 40.9284 11.1327 40.2486 11.1228C38.3565 11.1228 36.7668 9.53025 36.7668 7.4245C36.7668 5.31875 38.3565 3.72616 40.2486 3.72616C40.9276 3.71402 41.5955 3.90199 42.1707 4.26713V3.88795H44.5127V10.9686Z" fill="white"/>
<path id="Vector_5" fill-rule="evenodd" clip-rule="evenodd" d="M49.8115 6.01394C48.6693 6.05691 47.9469 6.36532 47.3971 6.92146V10.9661H45.0551V3.88796H47.3971V4.64633C48.0627 4.05441 48.9256 3.74001 49.8115 3.76662V6.01394Z" fill="white"/>
<path id="Vector_6" fill-rule="evenodd" clip-rule="evenodd" d="M57.4701 3.20791V1.02885H50.1466V10.9711H52.5911V7.46239H56.2553V7.41942C56.2466 6.68265 56.4247 5.95592 56.7727 5.30861H52.5861V3.20791H57.4701Z" fill="white"/>
<path id="Vector_7" fill-rule="evenodd" clip-rule="evenodd" d="M69.2724 6.01391C68.1302 6.05689 67.4078 6.36529 66.8579 6.92143V10.9661H64.5184V3.88794H66.8579V4.64631C67.5236 4.05439 68.3865 3.73999 69.2724 3.7666V6.01391Z" fill="white"/>
<path id="Vector_8" fill-rule="evenodd" clip-rule="evenodd" d="M81.2999 6.92139V10.966H78.9429V7.30057C78.9429 6.28941 78.4655 5.80911 77.6932 5.80911C77.4824 5.8166 77.2763 5.87319 77.0907 5.97448C76.9052 6.07576 76.7452 6.21901 76.6234 6.39305C76.6384 6.57001 76.6534 6.74443 76.6534 6.92139V10.966H74.3114V7.30057C74.3114 6.28941 73.8115 5.80911 73.0616 5.80911C72.6992 5.80911 72.3518 5.98606 72.0044 6.43856V10.9686H69.6424V3.89042H71.9819V4.29741C72.4597 3.8601 73.0875 3.6288 73.7315 3.6528C74.1392 3.64049 74.5445 3.72008 74.918 3.88578C75.2915 4.05149 75.6239 4.29917 75.891 4.61088C76.2235 4.2912 76.616 4.04234 77.0454 3.87906C77.4748 3.71578 77.9322 3.64142 78.3905 3.66038C80.0677 3.66038 81.3124 4.90411 81.3124 6.92139" fill="white"/>
<path id="Vector_9" fill-rule="evenodd" clip-rule="evenodd" d="M62.0164 7.43205C62.0285 7.21435 61.9966 6.99644 61.9225 6.79166C61.8485 6.58687 61.7339 6.39952 61.5858 6.24107C61.4377 6.08262 61.2592 5.9564 61.0612 5.87013C60.8632 5.78387 60.6499 5.73938 60.4343 5.73938C60.2187 5.73938 60.0053 5.78387 59.8073 5.87013C59.6093 5.9564 59.4308 6.08262 59.2827 6.24107C59.1346 6.39952 59.02 6.58687 58.946 6.79166C58.8719 6.99644 58.84 7.21435 58.8521 7.43205C58.8521 8.38255 59.4895 9.14345 60.4418 9.14345C61.3941 9.14345 62.0164 8.38508 62.0164 7.43205ZM64.2285 7.41689C64.2285 9.58078 62.6388 11.1885 60.4268 11.1885C58.2147 11.1885 56.6276 9.58078 56.6276 7.41689C56.6276 5.25299 58.2172 3.71855 60.4268 3.71855C62.6363 3.71855 64.2285 5.28333 64.2285 7.41689Z" fill="white"/>
</g>
<defs>
<clipPath id="clip0_2_14557">
<rect width="81.1429" height="12" fill="white" transform="translate(0.157104)"/>
</clipPath>
</defs>
</svg>
