<svg width="156" height="24" viewBox="0 0 156 24" fill="none" xmlns="http://www.w3.org/2000/svg">
<g id="OSS Check">
<path d="M11.7107 23.1701C9.73419 23.1701 7.91743 22.7109 6.26039 21.7925C4.62332 20.8742 3.31565 19.5964 2.3374 17.9594C1.37911 16.3023 0.899963 14.4456 0.899963 12.3893C0.899963 10.333 1.37911 8.48628 2.3374 6.8492C3.31565 5.21212 4.62332 3.93441 6.26039 3.01605C7.91743 2.09769 9.73419 1.63851 11.7107 1.63851C13.6871 1.63851 15.4939 2.09769 17.131 3.01605C18.788 3.93441 20.0857 5.21212 21.024 6.8492C21.9823 8.48628 22.4615 10.333 22.4615 12.3893C22.4615 14.4456 21.9823 16.3023 21.024 17.9594C20.0657 19.5964 18.7681 20.8742 17.131 21.7925C15.4939 22.7109 13.6871 23.1701 11.7107 23.1701ZM11.7107 18.4984C13.3877 18.4984 14.7253 17.9394 15.7235 16.8214C16.7417 15.7034 17.2508 14.226 17.2508 12.3893C17.2508 10.5326 16.7417 9.05526 15.7235 7.95722C14.7253 6.83922 13.3877 6.28022 11.7107 6.28022C10.0137 6.28022 8.65611 6.82924 7.63793 7.92727C6.63972 9.02531 6.14061 10.5127 6.14061 12.3893C6.14061 14.246 6.63972 15.7333 7.63793 16.8513C8.65611 17.9494 10.0137 18.4984 11.7107 18.4984Z" fill="white"/>
<path d="M31.7189 23.1701C30.1817 23.1701 28.8041 22.9205 27.5863 22.4214C26.3685 21.9223 25.3902 21.1836 24.6515 20.2054C23.9328 19.2271 23.5535 18.0492 23.5136 16.6717H28.9638C29.0437 17.4503 29.3132 18.0492 29.7724 18.4685C30.2316 18.8677 30.8305 19.0674 31.5692 19.0674C32.3278 19.0674 32.9268 18.8977 33.366 18.5583C33.8052 18.1989 34.0248 17.7098 34.0248 17.0909C34.0248 16.5718 33.8451 16.1426 33.4858 15.8032C33.1464 15.4638 32.7171 15.1843 32.1981 14.9647C31.699 14.7451 30.9802 14.4955 30.0419 14.216C28.6843 13.7968 27.5763 13.3775 26.7178 12.9583C25.8594 12.539 25.1207 11.9201 24.5018 11.1016C23.8829 10.2831 23.5735 9.21498 23.5735 7.89733C23.5735 5.94082 24.2822 4.41355 25.6997 3.31551C27.1171 2.19751 28.9638 1.63851 31.2398 1.63851C33.5556 1.63851 35.4223 2.19751 36.8398 3.31551C38.2572 4.41355 39.0159 5.9508 39.1157 7.92727H33.5756C33.5357 7.24849 33.2861 6.71943 32.8269 6.34011C32.3678 5.94082 31.7788 5.74118 31.0601 5.74118C30.4412 5.74118 29.9421 5.91088 29.5628 6.25027C29.1834 6.5697 28.9938 7.03886 28.9938 7.65776C28.9938 8.33654 29.3132 8.8656 29.9521 9.24492C30.5909 9.62425 31.5891 10.0335 32.9467 10.4727C34.3043 10.9319 35.4023 11.3711 36.2408 11.7904C37.0993 12.2096 37.838 12.8185 38.4569 13.6171C39.0758 14.4157 39.3852 15.4439 39.3852 16.7016C39.3852 17.8995 39.0758 18.9875 38.4569 19.9658C37.858 20.944 36.9795 21.7226 35.8216 22.3016C34.6637 22.8806 33.2961 23.1701 31.7189 23.1701Z" fill="white"/>
<path d="M48.9452 23.1701C47.4079 23.1701 46.0304 22.9205 44.8126 22.4214C43.5947 21.9223 42.6165 21.1836 41.8778 20.2054C41.1591 19.2271 40.7798 18.0492 40.7398 16.6717H46.1901C46.27 17.4503 46.5395 18.0492 46.9987 18.4685C47.4578 18.8677 48.0568 19.0674 48.7955 19.0674C49.5541 19.0674 50.153 18.8977 50.5922 18.5583C51.0315 18.1989 51.2511 17.7098 51.2511 17.0909C51.2511 16.5718 51.0714 16.1426 50.712 15.8032C50.3726 15.4638 49.9434 15.1843 49.4243 14.9647C48.9252 14.7451 48.2065 14.4955 47.2682 14.216C45.9106 13.7968 44.8026 13.3775 43.9441 12.9583C43.0857 12.539 42.347 11.9201 41.7281 11.1016C41.1092 10.2831 40.7997 9.21498 40.7997 7.89733C40.7997 5.94082 41.5085 4.41355 42.9259 3.31551C44.3434 2.19751 46.1901 1.63851 48.466 1.63851C50.7819 1.63851 52.6486 2.19751 54.066 3.31551C55.4835 4.41355 56.2422 5.9508 56.342 7.92727H50.8019C50.7619 7.24849 50.5124 6.71943 50.0532 6.34011C49.594 5.94082 49.0051 5.74118 48.2864 5.74118C47.6675 5.74118 47.1684 5.91088 46.789 6.25027C46.4097 6.5697 46.2201 7.03886 46.2201 7.65776C46.2201 8.33654 46.5395 8.8656 47.1783 9.24492C47.8172 9.62425 48.8154 10.0335 50.173 10.4727C51.5306 10.9319 52.6286 11.3711 53.4671 11.7904C54.3256 12.2096 55.0643 12.8185 55.6832 13.6171C56.3021 14.4157 56.6115 15.4439 56.6115 16.7016C56.6115 17.8995 56.3021 18.9875 55.6832 19.9658C55.0842 20.944 54.2058 21.7226 53.0479 22.3016C51.8899 22.8806 50.5224 23.1701 48.9452 23.1701Z" fill="white"/>
<path d="M62.8448 12.4193C62.8448 10.343 63.294 8.49626 64.1924 6.87915C65.0908 5.24207 66.3386 3.97433 67.9357 3.07594C69.5528 2.15758 71.3796 1.6984 73.4159 1.6984C75.9115 1.6984 78.0477 2.35722 79.8245 3.67487C81.6013 4.99252 82.7892 6.78931 83.3881 9.06524H77.7582C77.3389 8.18681 76.74 7.51801 75.9614 7.05883C75.2028 6.59965 74.3343 6.37006 73.3561 6.37006C71.7789 6.37006 70.5012 6.91908 69.5229 8.01712C68.5446 9.11515 68.0555 10.5825 68.0555 12.4193C68.0555 14.256 68.5446 15.7234 69.5229 16.8214C70.5012 17.9194 71.7789 18.4685 73.3561 18.4685C74.3343 18.4685 75.2028 18.2389 75.9614 17.7797C76.74 17.3205 77.3389 16.6517 77.7582 15.7733H83.3881C82.7892 18.0492 81.6013 19.846 79.8245 21.1636C78.0477 22.4613 75.9115 23.1102 73.4159 23.1102C71.3796 23.1102 69.5528 22.661 67.9357 21.7626C66.3386 20.8442 65.0908 19.5765 64.1924 17.9594C63.294 16.3422 62.8448 14.4955 62.8448 12.4193Z" fill="white"/>
<path d="M95.5979 6.07059C97.5145 6.07059 99.0517 6.70945 100.21 7.98717C101.368 9.24492 101.947 10.9818 101.947 13.1979V22.9604H96.8557V13.8866C96.8557 12.7686 96.5662 11.9002 95.9872 11.2813C95.4082 10.6624 94.6296 10.3529 93.6514 10.3529C92.6731 10.3529 91.8945 10.6624 91.3156 11.2813C90.7366 11.9002 90.4471 12.7686 90.4471 13.8866V22.9604H85.3262V0.800003H90.4471V8.49626C90.9662 7.75758 91.6749 7.16863 92.5733 6.72941C93.4717 6.2902 94.4799 6.07059 95.5979 6.07059Z" fill="white"/>
<path d="M120.059 14.3358C120.059 14.815 120.029 15.3141 119.969 15.8332H108.38C108.46 16.8713 108.789 17.6699 109.368 18.2289C109.967 18.7679 110.696 19.0374 111.554 19.0374C112.832 19.0374 113.72 18.4984 114.219 17.4203H119.67C119.39 18.5184 118.881 19.5066 118.142 20.385C117.424 21.2635 116.515 21.9522 115.417 22.4513C114.319 22.9504 113.091 23.2 111.734 23.2C110.097 23.2 108.639 22.8506 107.362 22.1519C106.084 21.4531 105.086 20.4549 104.367 19.1572C103.648 17.8595 103.289 16.3422 103.289 14.6054C103.289 12.8685 103.638 11.3512 104.337 10.0535C105.056 8.7558 106.054 7.75758 107.332 7.05883C108.61 6.36007 110.077 6.0107 111.734 6.0107C113.351 6.0107 114.788 6.35009 116.046 7.02888C117.304 7.70767 118.282 8.67594 118.981 9.93369C119.7 11.1914 120.059 12.6588 120.059 14.3358ZM114.818 12.9882C114.818 12.1098 114.519 11.4111 113.92 10.892C113.321 10.3729 112.572 10.1134 111.674 10.1134C110.816 10.1134 110.087 10.3629 109.488 10.862C108.909 11.3611 108.55 12.0699 108.41 12.9882H114.818Z" fill="white"/>
<path d="M120.545 14.6054C120.545 12.8685 120.894 11.3512 121.593 10.0535C122.311 8.7558 123.3 7.75758 124.557 7.05883C125.835 6.36007 127.292 6.0107 128.93 6.0107C131.026 6.0107 132.773 6.55972 134.17 7.65776C135.588 8.7558 136.516 10.303 136.955 12.2995H131.505C131.046 11.0218 130.157 10.3829 128.84 10.3829C127.901 10.3829 127.153 10.7522 126.594 11.4909C126.035 12.2096 125.755 13.2478 125.755 14.6054C125.755 15.9629 126.035 17.0111 126.594 17.7497C127.153 18.4685 127.901 18.8278 128.84 18.8278C130.157 18.8278 131.046 18.189 131.505 16.9112H136.955C136.516 18.8677 135.588 20.405 134.17 21.523C132.753 22.641 131.006 23.2 128.93 23.2C127.292 23.2 125.835 22.8506 124.557 22.1519C123.3 21.4531 122.311 20.4549 121.593 19.1572C120.894 17.8595 120.545 16.3422 120.545 14.6054Z" fill="white"/>
<path d="M148.708 22.9604L143.617 15.9529V22.9604H138.497V0.800003H143.617V13.0481L148.678 6.25027H154.997L148.049 14.6353L155.057 22.9604H148.708Z" fill="white"/>
</g>
</svg>
