<svg width="18" height="18" viewBox="0 0 18 18" fill="none" xmlns="http://www.w3.org/2000/svg">
<g id="search-outline">
<path id="Vector" d="M7.65056 3.1H7.65007C6.75015 3.1 5.87045 3.36685 5.1222 3.86681C4.37395 4.36677 3.79075 5.07738 3.44637 5.90879C3.10199 6.74019 3.01188 7.65505 3.18745 8.53766C3.36301 9.42028 3.79636 10.231 4.4327 10.8673C5.06903 11.5037 5.87978 11.937 6.7624 12.1126C7.64502 12.2881 8.55988 12.198 9.39129 11.8537C10.2227 11.5093 10.9333 10.9261 11.4333 10.1778C11.9333 9.4296 12.2001 8.54991 12.2001 7.65V7.6495C12.1989 6.44327 11.7192 5.28678 10.8662 4.43385C10.0133 3.58091 8.85681 3.10121 7.65056 3.1ZM7.6495 12.55C6.68056 12.5499 5.73339 12.2625 4.92773 11.7242C4.12192 11.1858 3.49387 10.4205 3.123 9.52514C2.75212 8.62979 2.65509 7.64456 2.84416 6.69406C3.03323 5.74355 3.49991 4.87046 4.1852 4.18518C4.87048 3.4999 5.74359 3.03322 6.69411 2.84415C7.64463 2.65509 8.62987 2.75212 9.52524 3.12299C10.4206 3.49386 11.1859 4.12191 11.7243 4.92771C12.2626 5.73335 12.55 6.68051 12.5501 7.64944C12.5487 8.9487 12.0319 10.1943 11.1132 11.113C10.1944 12.0318 8.94878 12.5485 7.6495 12.55Z" fill="#6B7280" stroke="#374151"/>
</g>
</svg>
